<?xml version="1.0" encoding="iso-8859-1"?>
<!-- Generator: Adobe Illustrator 21.0.0, SVG Export Plug-In . SVG Version: 6.00 Build 0)  -->
<svg version="1.1" id="Capa_1" xmlns="http://www.w3.org/2000/svg" xmlns:xlink="http://www.w3.org/1999/xlink" x="0px" y="0px"
	 viewBox="0 0 512 512" style="enable-background:new 0 0 512 512;" xml:space="preserve">
<circle style="fill:#00C8C8;" cx="256" cy="256" r="256"/>
<path style="fill:#1CADB5;" d="M511.28,275.28L389.333,153.333L122.667,421.5l86.143,86.143C224.106,510.493,239.876,512,256,512
	C390.899,512,501.422,407.659,511.28,275.28z"/>
<polygon style="fill:#FFFFFF;" points="311,75 122.667,75 122.667,421.5 389.333,421.5 389.333,153.333 "/>
<polygon style="fill:#F2F6FC;" points="389.333,153.333 311,75 255.571,75 255.571,421.5 389.333,421.5 "/>
<polygon style="fill:#DCE1EB;" points="311,153.333 389.333,153.333 311,75 "/>
<rect x="297.69" y="213" style="fill:#2864F0;" width="48.31" height="140.67"/>
<rect x="166" y="246.89" style="fill:#4A7AFF;" width="48.31" height="106.78"/>
<rect x="231.84" y="272.46" style="fill:#FF432E;" width="48.31" height="81.2"/>
<rect x="255.57" y="272.46" style="fill:#DB0404;" width="24.585" height="81.2"/>
<g>
</g>
<g>
</g>
<g>
</g>
<g>
</g>
<g>
</g>
<g>
</g>
<g>
</g>
<g>
</g>
<g>
</g>
<g>
</g>
<g>
</g>
<g>
</g>
<g>
</g>
<g>
</g>
<g>
</g>
</svg>
