<svg xmlns="http://www.w3.org/2000/svg" height="512pt" version="1.1" viewBox="0 0 512 512" width="512pt">
<g id="surface1">
<path d="M 512 256 C 512 282.050781 508.109375 307.191406 500.871094 330.871094 C 495.269531 349.210938 487.671875 366.671875 478.320312 383 C 478.25 383.109375 478.191406 383.230469 478.121094 383.339844 C 477.5 384.429688 476.859375 385.519531 476.21875 386.589844 C 475.558594 387.699219 474.898438 388.808594 474.21875 389.898438 C 473.410156 391.21875 472.589844 392.539062 471.75 393.839844 C 471.050781 394.941406 470.339844 396.03125 469.621094 397.109375 C 469.609375 397.128906 469.601562 397.160156 469.578125 397.179688 C 468.851562 398.28125 468.121094 399.371094 467.371094 400.449219 C 467.328125 400.519531 467.28125 400.601562 467.21875 400.671875 C 466.601562 401.589844 465.960938 402.5 465.320312 403.410156 C 464.359375 404.78125 463.378906 406.128906 462.390625 407.480469 C 461.601562 408.550781 460.808594 409.621094 460 410.671875 C 459.289062 411.609375 458.570312 412.550781 457.839844 413.480469 C 456.210938 415.570312 454.550781 417.628906 452.859375 419.660156 C 452.429688 420.179688 452 420.691406 451.570312 421.191406 C 450.828125 422.070312 450.089844 422.941406 449.328125 423.800781 C 448.558594 424.691406 447.78125 425.578125 446.988281 426.460938 C 446.859375 426.621094 446.71875 426.769531 446.570312 426.929688 C 445.769531 427.820312 444.96875 428.710938 444.148438 429.589844 C 444.101562 429.648438 444.039062 429.71875 443.96875 429.78125 C 443.148438 430.679688 442.308594 431.570312 441.46875 432.449219 C 438.300781 435.789062 435.03125 439.039062 431.679688 442.199219 C 431.058594 442.789062 430.429688 443.378906 429.789062 443.960938 C 428.839844 444.851562 427.871094 445.730469 426.898438 446.601562 C 426.359375 447.078125 425.820312 447.558594 425.28125 448.03125 C 424.640625 448.609375 423.988281 449.179688 423.339844 449.730469 C 422.851562 450.148438 422.359375 450.578125 421.871094 450.988281 C 421.648438 451.191406 421.421875 451.378906 421.191406 451.570312 C 420.628906 452.039062 420.078125 452.511719 419.519531 452.96875 C 416.308594 455.648438 413.03125 458.238281 409.679688 460.75 C 408.820312 461.398438 407.949219 462.050781 407.078125 462.679688 C 406.070312 463.421875 405.058594 464.148438 404.039062 464.871094 C 403.378906 465.351562 402.71875 465.808594 402.050781 466.261719 L 402.050781 466.269531 C 401.878906 466.390625 401.710938 466.511719 401.53125 466.628906 C 400.160156 467.589844 398.769531 468.53125 397.371094 469.449219 C 396.808594 469.820312 396.25 470.191406 395.679688 470.558594 C 393.648438 471.890625 391.589844 473.191406 389.511719 474.460938 C 388.589844 475.03125 387.660156 475.589844 386.71875 476.148438 C 386.511719 476.28125 386.289062 476.410156 386.058594 476.539062 C 384.949219 477.199219 383.828125 477.851562 382.699219 478.488281 C 381.859375 478.96875 381.011719 479.449219 380.160156 479.921875 C 380.078125 479.96875 379.988281 480.019531 379.898438 480.058594 C 379.441406 480.320312 378.988281 480.570312 378.53125 480.820312 C 377.601562 481.328125 376.660156 481.839844 375.71875 482.328125 C 375.570312 482.421875 375.410156 482.5 375.25 482.578125 C 374.070312 483.210938 372.878906 483.820312 371.691406 484.421875 C 370.449219 485.050781 369.210938 485.671875 367.949219 486.28125 C 367.128906 486.691406 366.300781 487.078125 365.46875 487.46875 C 364.558594 487.898438 363.660156 488.328125 362.738281 488.75 C 360.941406 489.578125 359.121094 490.390625 357.28125 491.179688 C 356.589844 491.480469 355.898438 491.769531 355.210938 492.058594 C 354.371094 492.421875 353.511719 492.769531 352.648438 493.121094 C 351.550781 493.578125 350.441406 494.019531 349.320312 494.449219 C 347.761719 495.070312 346.191406 495.671875 344.601562 496.238281 C 343.351562 496.710938 342.101562 497.160156 340.839844 497.601562 C 339.851562 497.949219 338.851562 498.300781 337.851562 498.628906 C 337.230469 498.839844 336.609375 499.050781 335.980469 499.25 C 334.789062 499.648438 333.601562 500.03125 332.398438 500.398438 C 331.191406 500.78125 329.980469 501.148438 328.761719 501.511719 C 328.71875 501.519531 328.679688 501.539062 328.628906 501.550781 C 327.320312 501.941406 326 502.320312 324.679688 502.679688 C 323.519531 503.011719 322.351562 503.320312 321.179688 503.628906 C 318.550781 504.320312 315.910156 504.96875 313.238281 505.570312 C 312.628906 505.710938 312.03125 505.851562 311.421875 505.980469 C 310.46875 506.191406 309.53125 506.398438 308.570312 506.589844 C 308.011719 506.710938 307.449219 506.828125 306.878906 506.929688 C 305.878906 507.148438 304.871094 507.339844 303.859375 507.53125 C 302.929688 507.710938 301.988281 507.878906 301.058594 508.050781 C 300.628906 508.121094 300.199219 508.199219 299.769531 508.269531 C 299.648438 508.289062 299.539062 508.308594 299.429688 508.328125 C 298.199219 508.539062 296.96875 508.738281 295.730469 508.929688 C 294.011719 509.199219 292.28125 509.460938 290.539062 509.691406 C 289.289062 509.859375 288.050781 510.019531 286.789062 510.160156 C 286.761719 510.171875 286.730469 510.171875 286.699219 510.179688 C 283.839844 510.519531 280.960938 510.820312 278.070312 511.058594 C 276.96875 511.160156 275.859375 511.238281 274.75 511.320312 C 274.679688 511.328125 274.601562 511.328125 274.519531 511.339844 C 273.921875 511.378906 273.320312 511.421875 272.710938 511.460938 C 271.371094 511.550781 270.019531 511.628906 268.660156 511.691406 C 267.648438 511.738281 266.628906 511.789062 265.609375 511.820312 C 265.109375 511.839844 264.601562 511.859375 264.101562 511.871094 C 262.800781 511.910156 261.5 511.949219 260.191406 511.960938 C 258.800781 511.988281 257.398438 512 256 512 C 254.640625 512 253.28125 511.988281 251.929688 511.960938 C 251.648438 511.960938 251.378906 511.960938 251.109375 511.949219 C 249.820312 511.929688 248.53125 511.898438 247.25 511.851562 L 247.019531 511.851562 C 245.578125 511.800781 244.148438 511.730469 242.71875 511.660156 L 242.671875 511.660156 C 241.441406 511.601562 240.199219 511.519531 238.980469 511.441406 L 238.949219 511.441406 C 238.371094 511.398438 237.789062 511.359375 237.210938 511.308594 C 236.058594 511.238281 234.910156 511.148438 233.761719 511.039062 C 232.410156 510.929688 231.070312 510.808594 229.730469 510.660156 C 229.609375 510.660156 229.5 510.640625 229.390625 510.628906 C 228 510.488281 226.621094 510.339844 225.25 510.171875 C 223.929688 510.011719 222.621094 509.851562 221.308594 509.671875 C 220.839844 509.609375 220.371094 509.539062 219.898438 509.46875 C 218.871094 509.328125 217.839844 509.179688 216.808594 509.011719 C 215.109375 508.761719 213.421875 508.480469 211.738281 508.179688 C 210.640625 508 209.539062 507.800781 208.441406 507.578125 C 205.859375 507.109375 203.300781 506.578125 200.75 506.019531 C 200.199219 505.898438 199.640625 505.769531 199.089844 505.648438 C 197.730469 505.339844 196.378906 505.019531 195.03125 504.699219 C 194.320312 504.519531 193.609375 504.339844 192.898438 504.160156 C 192.640625 504.101562 192.378906 504.03125 192.121094 503.960938 C 191.519531 503.808594 190.910156 503.648438 190.308594 503.488281 C 187.871094 502.851562 185.449219 502.171875 183.050781 501.449219 C 181.960938 501.128906 180.871094 500.800781 179.789062 500.460938 C 178.53125 500.070312 177.269531 499.671875 176.019531 499.25 C 175.5 499.078125 174.96875 498.910156 174.449219 498.730469 C 174.378906 498.710938 174.308594 498.691406 174.238281 498.660156 C 173.210938 498.320312 172.179688 497.960938 171.160156 497.601562 C 169.988281 497.199219 168.828125 496.78125 167.679688 496.351562 C 166.648438 495.980469 165.640625 495.601562 164.628906 495.199219 C 163.839844 494.910156 163.058594 494.601562 162.28125 494.289062 C 161.410156 493.960938 160.539062 493.609375 159.671875 493.25 C 158.601562 492.820312 157.539062 492.378906 156.488281 491.929688 C 155.921875 491.699219 155.359375 491.460938 154.808594 491.21875 C 154.101562 490.921875 153.390625 490.609375 152.691406 490.289062 C 152.109375 490.039062 151.53125 489.78125 150.949219 489.519531 C 150.128906 489.148438 149.308594 488.78125 148.5 488.398438 C 147.890625 488.109375 147.269531 487.820312 146.660156 487.53125 C 145.78125 487.121094 144.910156 486.710938 144.050781 486.28125 C 142.789062 485.671875 141.550781 485.050781 140.308594 484.421875 C 140.28125 484.410156 140.261719 484.398438 140.238281 484.390625 C 139.140625 483.828125 138.039062 483.261719 136.949219 482.679688 C 134.300781 481.289062 131.679688 479.859375 129.089844 478.371094 C 128.121094 477.820312 127.148438 477.261719 126.191406 476.691406 C 125.988281 476.570312 125.789062 476.460938 125.601562 476.339844 C 124.480469 475.679688 123.371094 475.011719 122.269531 474.328125 C 122.199219 474.289062 122.140625 474.25 122.078125 474.210938 C 120.960938 473.53125 119.851562 472.828125 118.75 472.128906 C 117.988281 471.648438 117.230469 471.160156 116.488281 470.671875 C 115.859375 470.269531 115.25 469.859375 114.628906 469.449219 C 114.539062 469.398438 114.460938 469.339844 114.378906 469.28125 C 113.21875 468.511719 112.058594 467.730469 110.910156 466.929688 C 110.800781 466.859375 110.691406 466.789062 110.589844 466.710938 C 110.148438 466.410156 109.699219 466.101562 109.261719 465.769531 C 108.609375 465.328125 107.960938 464.878906 107.320312 464.410156 C 107.058594 464.238281 106.800781 464.050781 106.550781 463.851562 C 105.71875 463.269531 104.898438 462.671875 104.089844 462.058594 C 103.589844 461.699219 103.089844 461.328125 102.601562 460.960938 C 101.929688 460.460938 101.269531 459.960938 100.609375 459.449219 C 100.089844 459.058594 99.558594 458.648438 99.039062 458.230469 C 98.171875 457.570312 97.308594 456.890625 96.460938 456.210938 C 96.351562 456.128906 96.230469 456.039062 96.121094 455.929688 C 94.988281 455.03125 93.859375 454.121094 92.75 453.199219 C 92.710938 453.171875 92.671875 453.140625 92.640625 453.101562 C 91.488281 452.148438 90.351562 451.191406 89.21875 450.21875 C 89.210938 450.210938 89.199219 450.210938 89.199219 450.199219 C 86.949219 448.261719 84.738281 446.289062 82.558594 444.289062 C 82.511719 444.238281 82.449219 444.191406 82.398438 444.140625 C 81.289062 443.121094 80.191406 442.078125 79.101562 441.039062 C 78.011719 439.988281 76.921875 438.941406 75.851562 437.871094 C 74.820312 436.859375 73.808594 435.839844 72.808594 434.808594 C 72.628906 434.640625 72.460938 434.460938 72.300781 434.289062 C 71.359375 433.328125 70.441406 432.351562 69.519531 431.371094 C 69.5 431.359375 69.488281 431.359375 69.5 431.351562 C 68.648438 430.460938 67.808594 429.550781 66.988281 428.640625 C 66.589844 428.21875 66.199219 427.789062 65.820312 427.359375 C 65.210938 426.691406 64.609375 426.011719 64.011719 425.328125 C 63.699219 424.988281 63.398438 424.648438 63.109375 424.308594 C 62.261719 423.339844 61.421875 422.359375 60.589844 421.371094 C 60.511719 421.289062 60.441406 421.210938 60.378906 421.128906 C 59.648438 420.261719 58.921875 419.390625 58.210938 418.511719 C 57.648438 417.859375 57.121094 417.199219 56.609375 416.550781 C 55.898438 415.691406 55.210938 414.820312 54.53125 413.949219 C 53.671875 412.859375 52.828125 411.769531 52 410.671875 C 51.28125 409.730469 50.578125 408.789062 49.878906 407.839844 C 49.378906 407.171875 48.898438 406.511719 48.429688 405.839844 C 47.808594 405 47.210938 404.160156 46.621094 403.308594 C 46.488281 403.148438 46.378906 402.980469 46.28125 402.820312 C 45.539062 401.789062 44.828125 400.75 44.128906 399.710938 C 43.910156 399.410156 43.710938 399.101562 43.511719 398.800781 C 43 398.050781 42.488281 397.289062 41.988281 396.53125 C 41.539062 395.839844 41.078125 395.140625 40.640625 394.441406 C 40.21875 393.800781 39.800781 393.148438 39.398438 392.5 C 39.128906 392.078125 38.871094 391.671875 38.621094 391.25 C 38.191406 390.578125 37.78125 389.910156 37.371094 389.230469 C 36.839844 388.371094 36.320312 387.519531 35.808594 386.648438 C 35.769531 386.589844 35.730469 386.519531 35.699219 386.449219 C 35.070312 385.410156 34.460938 384.359375 33.859375 383.300781 C 33.789062 383.199219 33.738281 383.101562 33.691406 383 L 33.679688 383 C 29.320312 375.390625 25.339844 367.53125 21.769531 359.449219 C 7.769531 327.820312 0 292.820312 0 256 C 0 254.558594 0.0117188 253.109375 0.0390625 251.679688 C 0.0585938 250.480469 0.078125 249.289062 0.121094 248.109375 C 0.140625 247.570312 0.148438 247.03125 0.179688 246.488281 C 0.21875 245.269531 0.269531 244.050781 0.328125 242.828125 C 0.398438 241.570312 0.46875 240.308594 0.558594 239.050781 C 0.621094 237.988281 0.699219 236.929688 0.78125 235.878906 C 0.828125 235.171875 0.890625 234.449219 0.960938 233.738281 C 1.03125 232.839844 1.109375 231.949219 1.199219 231.058594 C 1.371094 229.308594 1.558594 227.558594 1.769531 225.820312 C 1.890625 224.71875 2.03125 223.609375 2.179688 222.511719 C 2.21875 222.171875 2.261719 221.839844 2.308594 221.5 C 2.460938 220.300781 2.628906 219.109375 2.820312 217.921875 C 2.828125 217.828125 2.839844 217.738281 2.859375 217.648438 C 2.949219 216.96875 3.058594 216.300781 3.171875 215.621094 C 3.378906 214.300781 3.601562 212.96875 3.828125 211.660156 C 3.980469 210.769531 4.140625 209.878906 4.308594 208.988281 C 4.460938 208.179688 4.609375 207.371094 4.78125 206.558594 C 4.898438 205.898438 5.03125 205.25 5.160156 204.601562 C 5.601562 202.449219 6.058594 200.320312 6.558594 198.191406 C 6.75 197.359375 6.941406 196.53125 7.148438 195.710938 C 7.359375 194.789062 7.589844 193.859375 7.828125 192.941406 C 8.039062 192.089844 8.261719 191.25 8.488281 190.410156 C 8.609375 189.929688 8.738281 189.449219 8.871094 188.960938 C 9.261719 187.519531 9.660156 186.078125 10.078125 184.648438 C 10.351562 183.699219 10.628906 182.761719 10.921875 181.820312 C 11.71875 179.160156 12.558594 176.519531 13.449219 173.898438 C 13.789062 172.898438 14.128906 171.921875 14.480469 170.929688 C 14.820312 169.941406 15.179688 168.960938 15.539062 167.980469 C 15.871094 167.058594 16.21875 166.140625 16.570312 165.21875 C 17.378906 163.078125 18.21875 160.949219 19.089844 158.839844 C 19.359375 158.160156 19.648438 157.480469 19.941406 156.800781 C 20.070312 156.488281 20.199219 156.179688 20.320312 155.878906 C 20.621094 155.191406 20.910156 154.5 21.210938 153.808594 C 22.308594 151.289062 23.449219 148.800781 24.628906 146.328125 C 25.011719 145.5 25.410156 144.671875 25.820312 143.851562 C 25.949219 143.578125 26.070312 143.320312 26.210938 143.058594 C 26.761719 141.929688 27.320312 140.800781 27.898438 139.679688 C 28.550781 138.410156 29.210938 137.140625 29.890625 135.878906 C 30.480469 134.761719 31.078125 133.640625 31.699219 132.53125 C 32.320312 131.390625 32.960938 130.261719 33.601562 129.140625 C 33.628906 129.089844 33.648438 129.050781 33.679688 129 C 77.800781 51.929688 160.839844 0 256 0 C 351.160156 0 434.199219 51.929688 478.320312 129 C 478.351562 129.050781 478.371094 129.089844 478.398438 129.140625 C 479.039062 130.261719 479.679688 131.390625 480.300781 132.53125 C 480.921875 133.640625 481.519531 134.761719 482.109375 135.878906 C 482.789062 137.140625 483.449219 138.410156 484.101562 139.679688 C 484.679688 140.800781 485.238281 141.929688 485.789062 143.058594 C 485.929688 143.320312 486.050781 143.578125 486.179688 143.851562 C 486.589844 144.671875 486.988281 145.5 487.371094 146.328125 C 488.550781 148.800781 489.691406 151.289062 490.789062 153.808594 C 491.089844 154.5 491.378906 155.191406 491.679688 155.878906 C 491.800781 156.179688 491.929688 156.488281 492.058594 156.800781 C 492.351562 157.480469 492.640625 158.160156 492.910156 158.839844 C 493.78125 160.949219 494.621094 163.078125 495.429688 165.21875 C 495.78125 166.140625 496.128906 167.058594 496.460938 167.980469 C 496.820312 168.960938 497.179688 169.941406 497.519531 170.929688 C 497.871094 171.921875 498.210938 172.898438 498.550781 173.898438 C 499.441406 176.519531 500.28125 179.160156 501.078125 181.820312 C 501.371094 182.761719 501.648438 183.699219 501.921875 184.648438 C 502.339844 186.078125 502.738281 187.519531 503.128906 188.960938 C 503.261719 189.449219 503.390625 189.929688 503.511719 190.410156 C 503.738281 191.25 503.960938 192.089844 504.171875 192.941406 C 504.410156 193.859375 504.640625 194.789062 504.851562 195.710938 C 505.058594 196.53125 505.25 197.359375 505.441406 198.191406 C 505.941406 200.320312 506.398438 202.449219 506.839844 204.601562 C 506.96875 205.25 507.101562 205.898438 507.21875 206.558594 C 507.390625 207.371094 507.539062 208.179688 507.691406 208.988281 C 507.859375 209.878906 508.019531 210.769531 508.171875 211.660156 C 508.398438 212.96875 508.621094 214.300781 508.828125 215.621094 C 508.941406 216.300781 509.050781 216.96875 509.140625 217.648438 C 509.160156 217.738281 509.171875 217.828125 509.179688 217.921875 C 509.371094 219.109375 509.539062 220.300781 509.691406 221.5 C 509.738281 221.839844 509.78125 222.171875 509.820312 222.511719 C 509.96875 223.609375 510.109375 224.71875 510.230469 225.820312 C 510.441406 227.558594 510.628906 229.308594 510.800781 231.058594 C 510.890625 231.949219 510.96875 232.839844 511.039062 233.738281 C 511.109375 234.449219 511.171875 235.171875 511.21875 235.878906 C 511.300781 236.929688 511.378906 237.988281 511.441406 239.050781 C 511.53125 240.308594 511.601562 241.570312 511.671875 242.828125 C 511.730469 244.050781 511.78125 245.269531 511.820312 246.488281 C 511.851562 247.03125 511.859375 247.570312 511.878906 248.109375 C 511.921875 249.289062 511.941406 250.480469 511.960938 251.679688 C 511.988281 253.109375 512 254.558594 512 256 Z M 512 256 " style=" stroke:none;fill-rule:nonzero;fill:rgb(20.784314%,78.823529%,72.156863%);fill-opacity:1;" />
<path d="M 512 256 C 512 282.050781 508.109375 307.191406 500.871094 330.871094 C 495.269531 349.210938 487.671875 366.671875 478.320312 383 C 478.25 383.109375 478.191406 383.230469 478.121094 383.339844 C 477.5 384.429688 476.859375 385.519531 476.21875 386.589844 C 475.558594 387.699219 474.898438 388.808594 474.21875 389.898438 C 473.410156 391.21875 472.589844 392.539062 471.75 393.839844 C 471.050781 394.941406 470.339844 396.03125 469.621094 397.109375 C 469.609375 397.128906 469.601562 397.160156 469.578125 397.179688 C 468.851562 398.28125 468.121094 399.371094 467.371094 400.449219 C 467.328125 400.519531 467.28125 400.601562 467.21875 400.671875 C 466.601562 401.589844 465.960938 402.5 465.320312 403.410156 C 464.359375 404.78125 463.378906 406.128906 462.390625 407.480469 C 461.601562 408.550781 460.808594 409.621094 460 410.671875 C 459.289062 411.609375 458.570312 412.550781 457.839844 413.480469 C 456.210938 415.570312 454.550781 417.628906 452.859375 419.660156 C 452.429688 420.179688 452 420.691406 451.570312 421.191406 C 450.828125 422.070312 450.089844 422.941406 449.328125 423.800781 C 448.558594 424.691406 447.78125 425.578125 446.988281 426.460938 C 446.859375 426.621094 446.71875 426.769531 446.570312 426.929688 C 445.769531 427.820312 444.96875 428.710938 444.148438 429.589844 C 444.101562 429.648438 444.039062 429.71875 443.96875 429.78125 C 443.148438 430.679688 442.308594 431.570312 441.46875 432.449219 C 438.300781 435.789062 435.03125 439.039062 431.679688 442.199219 C 431.058594 442.789062 430.429688 443.378906 429.789062 443.960938 C 428.839844 444.851562 427.871094 445.730469 426.898438 446.601562 C 426.359375 447.078125 425.820312 447.558594 425.28125 448.03125 C 424.640625 448.609375 423.988281 449.179688 423.339844 449.730469 C 422.851562 450.148438 422.359375 450.578125 421.871094 450.988281 C 421.648438 451.191406 421.421875 451.378906 421.191406 451.570312 C 420.628906 452.039062 420.078125 452.511719 419.519531 452.96875 C 416.308594 455.648438 413.03125 458.238281 409.679688 460.75 C 408.820312 461.398438 407.949219 462.050781 407.078125 462.679688 C 406.070312 463.421875 405.058594 464.148438 404.039062 464.871094 C 403.378906 465.351562 402.71875 465.808594 402.050781 466.261719 L 402.050781 466.269531 C 401.878906 466.390625 401.710938 466.511719 401.53125 466.628906 C 400.160156 467.589844 398.769531 468.53125 397.371094 469.449219 C 396.808594 469.820312 396.25 470.191406 395.679688 470.558594 C 393.648438 471.890625 391.589844 473.191406 389.511719 474.460938 C 388.589844 475.03125 387.660156 475.589844 386.71875 476.148438 C 386.511719 476.28125 386.289062 476.410156 386.058594 476.539062 C 384.949219 477.199219 383.828125 477.851562 382.699219 478.488281 C 381.859375 478.96875 381.011719 479.449219 380.160156 479.921875 C 380.078125 479.96875 379.988281 480.019531 379.898438 480.058594 C 379.441406 480.320312 378.988281 480.570312 378.53125 480.820312 C 377.601562 481.328125 376.660156 481.839844 375.71875 482.328125 C 375.570312 482.421875 375.410156 482.5 375.25 482.578125 C 374.070312 483.210938 372.878906 483.820312 371.691406 484.421875 C 370.449219 485.050781 369.210938 485.671875 367.949219 486.28125 C 367.128906 486.691406 366.300781 487.078125 365.46875 487.46875 C 364.558594 487.898438 363.660156 488.328125 362.738281 488.75 C 360.941406 489.578125 359.121094 490.390625 357.28125 491.179688 C 356.589844 491.480469 355.898438 491.769531 355.210938 492.058594 C 354.371094 492.421875 353.511719 492.769531 352.648438 493.121094 C 351.550781 493.578125 350.441406 494.019531 349.320312 494.449219 C 347.761719 495.070312 346.191406 495.671875 344.601562 496.238281 C 343.351562 496.710938 342.101562 497.160156 340.839844 497.601562 C 339.851562 497.949219 338.851562 498.300781 337.851562 498.628906 C 337.230469 498.839844 336.609375 499.050781 335.980469 499.25 C 334.789062 499.648438 333.601562 500.03125 332.398438 500.398438 C 331.191406 500.78125 329.980469 501.148438 328.761719 501.511719 C 328.71875 501.519531 328.679688 501.539062 328.628906 501.550781 C 327.320312 501.941406 326 502.320312 324.679688 502.679688 C 323.519531 503.011719 322.351562 503.320312 321.179688 503.628906 C 318.550781 504.320312 315.910156 504.96875 313.238281 505.570312 C 312.628906 505.710938 312.03125 505.851562 311.421875 505.980469 C 310.46875 506.191406 309.53125 506.398438 308.570312 506.589844 C 308.011719 506.710938 307.449219 506.828125 306.878906 506.929688 C 305.878906 507.148438 304.871094 507.339844 303.859375 507.53125 C 302.929688 507.710938 301.988281 507.878906 301.058594 508.050781 C 300.628906 508.121094 300.199219 508.199219 299.769531 508.269531 C 299.648438 508.289062 299.539062 508.308594 299.429688 508.328125 C 298.199219 508.539062 296.96875 508.738281 295.730469 508.929688 C 294.011719 509.199219 292.28125 509.460938 290.539062 509.691406 C 289.289062 509.859375 288.050781 510.019531 286.789062 510.160156 C 286.761719 510.171875 286.730469 510.171875 286.699219 510.179688 C 283.839844 510.519531 280.960938 510.820312 278.070312 511.058594 C 276.96875 511.160156 275.859375 511.238281 274.75 511.320312 C 274.679688 511.328125 274.601562 511.328125 274.519531 511.339844 C 273.921875 511.378906 273.320312 511.421875 272.710938 511.460938 C 271.371094 511.550781 270.019531 511.628906 268.660156 511.691406 C 267.648438 511.738281 266.628906 511.789062 265.609375 511.820312 C 265.109375 511.839844 264.601562 511.859375 264.101562 511.871094 C 262.800781 511.910156 261.5 511.949219 260.191406 511.960938 C 258.800781 511.988281 257.398438 512 256 512 C 254.640625 512 253.28125 511.988281 251.929688 511.960938 C 251.648438 511.960938 251.378906 511.960938 251.109375 511.949219 C 249.820312 511.929688 248.53125 511.898438 247.25 511.851562 L 247.019531 511.851562 C 245.578125 511.800781 244.148438 511.730469 242.71875 511.660156 L 242.671875 511.660156 C 241.441406 511.601562 240.199219 511.519531 238.980469 511.441406 L 238.949219 511.441406 C 238.371094 511.398438 237.789062 511.359375 237.210938 511.308594 C 236.058594 511.238281 234.910156 511.148438 233.761719 511.039062 C 232.410156 510.929688 231.070312 510.808594 229.730469 510.660156 C 229.609375 510.660156 229.5 510.640625 229.390625 510.628906 C 228 510.488281 226.621094 510.339844 225.25 510.171875 C 223.929688 510.011719 222.621094 509.851562 221.308594 509.671875 C 220.839844 509.609375 220.371094 509.539062 219.898438 509.46875 C 218.871094 509.328125 217.839844 509.179688 216.808594 509.011719 C 215.109375 508.761719 213.421875 508.480469 211.738281 508.179688 C 210.640625 508 209.539062 507.800781 208.441406 507.578125 C 205.859375 507.109375 203.300781 506.578125 200.75 506.019531 C 200.199219 505.898438 199.640625 505.769531 199.089844 505.648438 C 197.730469 505.339844 196.378906 505.019531 195.03125 504.699219 C 194.320312 504.519531 193.609375 504.339844 192.898438 504.160156 C 192.640625 504.101562 192.378906 504.03125 192.121094 503.960938 C 191.519531 503.808594 190.910156 503.648438 190.308594 503.488281 C 187.871094 502.851562 185.449219 502.171875 183.050781 501.449219 C 181.960938 501.128906 180.871094 500.800781 179.789062 500.460938 C 178.53125 500.070312 177.269531 499.671875 176.019531 499.25 C 175.5 499.078125 174.96875 498.910156 174.449219 498.730469 C 174.378906 498.710938 174.308594 498.691406 174.238281 498.660156 C 173.210938 498.320312 172.179688 497.960938 171.160156 497.601562 C 169.988281 497.199219 168.828125 496.78125 167.679688 496.351562 C 166.648438 495.980469 165.640625 495.601562 164.628906 495.199219 C 163.839844 494.910156 163.058594 494.601562 162.28125 494.289062 C 161.410156 493.960938 160.539062 493.609375 159.671875 493.25 C 158.601562 492.820312 157.539062 492.378906 156.488281 491.929688 C 155.921875 491.699219 155.359375 491.460938 154.808594 491.21875 C 154.101562 490.921875 153.390625 490.609375 152.691406 490.289062 C 152.109375 490.039062 151.53125 489.78125 150.949219 489.519531 C 150.128906 489.148438 149.308594 488.78125 148.5 488.398438 C 147.890625 488.109375 147.269531 487.820312 146.660156 487.53125 C 145.78125 487.121094 144.910156 486.710938 144.050781 486.28125 C 142.789062 485.671875 141.550781 485.050781 140.308594 484.421875 C 140.28125 484.410156 140.261719 484.398438 140.238281 484.390625 C 139.140625 483.828125 138.039062 483.261719 136.949219 482.679688 C 134.300781 481.289062 131.679688 479.859375 129.089844 478.371094 C 128.121094 477.820312 127.148438 477.261719 126.191406 476.691406 C 125.988281 476.570312 125.789062 476.460938 125.601562 476.339844 C 124.480469 475.679688 123.371094 475.011719 122.269531 474.328125 C 122.199219 474.289062 122.140625 474.25 122.078125 474.210938 C 120.960938 473.53125 119.851562 472.828125 118.75 472.128906 C 117.988281 471.648438 117.230469 471.160156 116.488281 470.671875 C 115.859375 470.269531 115.25 469.859375 114.628906 469.449219 C 114.539062 469.398438 114.460938 469.339844 114.378906 469.28125 C 113.21875 468.511719 112.058594 467.730469 110.910156 466.929688 C 110.800781 466.859375 110.691406 466.789062 110.589844 466.710938 C 110.148438 466.410156 109.699219 466.101562 109.261719 465.769531 C 108.609375 465.328125 107.960938 464.878906 107.320312 464.410156 C 107.058594 464.238281 106.800781 464.050781 106.550781 463.851562 C 105.71875 463.269531 104.898438 462.671875 104.089844 462.058594 C 103.589844 461.699219 103.089844 461.328125 102.601562 460.960938 C 101.929688 460.460938 101.269531 459.960938 100.609375 459.449219 C 100.089844 459.058594 99.558594 458.648438 99.039062 458.230469 C 98.171875 457.570312 97.308594 456.890625 96.460938 456.210938 C 96.351562 456.128906 96.230469 456.039062 96.121094 455.929688 C 94.988281 455.03125 93.859375 454.121094 92.75 453.199219 C 92.710938 453.171875 92.671875 453.140625 92.640625 453.101562 C 91.488281 452.148438 90.351562 451.191406 89.21875 450.21875 C 89.210938 450.210938 89.199219 450.210938 89.199219 450.199219 C 86.949219 448.261719 84.738281 446.289062 82.558594 444.289062 C 82.511719 444.238281 82.449219 444.191406 82.398438 444.140625 C 81.289062 443.121094 80.191406 442.078125 79.101562 441.039062 C 78.011719 439.988281 76.921875 438.941406 75.851562 437.871094 C 74.820312 436.859375 73.808594 435.839844 72.808594 434.808594 C 72.628906 434.640625 72.460938 434.460938 72.300781 434.289062 C 71.359375 433.328125 70.441406 432.351562 69.519531 431.371094 C 69.5 431.359375 69.488281 431.359375 69.5 431.351562 C 68.648438 430.460938 67.808594 429.550781 66.988281 428.640625 C 66.589844 428.21875 66.199219 427.789062 65.820312 427.359375 C 65.210938 426.691406 64.609375 426.011719 64.011719 425.328125 C 63.699219 424.988281 63.398438 424.648438 63.109375 424.308594 C 62.261719 423.339844 61.421875 422.359375 60.589844 421.371094 C 60.511719 421.289062 60.441406 421.210938 60.378906 421.128906 C 59.648438 420.261719 58.921875 419.390625 58.210938 418.511719 C 57.648438 417.859375 57.121094 417.199219 56.609375 416.550781 C 55.898438 415.691406 55.210938 414.820312 54.53125 413.949219 C 53.671875 412.859375 52.828125 411.769531 52 410.671875 C 51.28125 409.730469 50.578125 408.789062 49.878906 407.839844 C 49.378906 407.171875 48.898438 406.511719 48.429688 405.839844 C 47.808594 405 47.210938 404.160156 46.621094 403.308594 C 46.488281 403.148438 46.378906 402.980469 46.28125 402.820312 C 45.539062 401.789062 44.828125 400.75 44.128906 399.710938 C 43.910156 399.410156 43.710938 399.101562 43.511719 398.800781 C 43 398.050781 42.488281 397.289062 41.988281 396.53125 C 41.539062 395.839844 41.078125 395.140625 40.640625 394.441406 C 40.21875 393.800781 39.800781 393.148438 39.398438 392.5 C 39.128906 392.078125 38.871094 391.671875 38.621094 391.25 C 38.191406 390.578125 37.78125 389.910156 37.371094 389.230469 C 36.839844 388.371094 36.320312 387.519531 35.808594 386.648438 C 35.769531 386.589844 35.730469 386.519531 35.699219 386.449219 C 35.070312 385.410156 34.460938 384.359375 33.859375 383.300781 C 33.789062 383.199219 33.738281 383.101562 33.691406 383 L 33.679688 383 C 29.320312 375.390625 25.339844 367.53125 21.769531 359.449219 C 7.769531 327.820312 0 292.820312 0 256 C 0 254.558594 0.0117188 253.109375 0.0390625 251.679688 C 0.0585938 250.480469 0.078125 249.289062 0.121094 248.109375 C 0.140625 247.570312 0.148438 247.03125 0.179688 246.488281 C 0.21875 245.269531 0.269531 244.050781 0.328125 242.828125 C 0.398438 241.570312 0.46875 240.308594 0.558594 239.050781 C 0.621094 237.988281 0.699219 236.929688 0.78125 235.878906 C 0.828125 235.171875 0.890625 234.449219 0.960938 233.738281 C 1.03125 232.839844 1.109375 231.949219 1.199219 231.058594 C 1.371094 229.308594 1.558594 227.558594 1.769531 225.820312 C 1.890625 224.71875 2.03125 223.609375 2.179688 222.511719 C 2.21875 222.171875 2.261719 221.839844 2.308594 221.5 C 2.460938 220.300781 2.628906 219.109375 2.820312 217.921875 C 2.828125 217.828125 2.839844 217.738281 2.859375 217.648438 C 2.949219 216.96875 3.058594 216.300781 3.171875 215.621094 C 3.378906 214.300781 3.601562 212.96875 3.828125 211.660156 C 3.980469 210.769531 4.140625 209.878906 4.308594 208.988281 C 4.460938 208.179688 4.609375 207.371094 4.78125 206.558594 C 4.898438 205.898438 5.03125 205.25 5.160156 204.601562 C 5.601562 202.449219 6.058594 200.320312 6.558594 198.191406 C 6.75 197.359375 6.941406 196.53125 7.148438 195.710938 C 7.359375 194.789062 7.589844 193.859375 7.828125 192.941406 C 8.039062 192.089844 8.261719 191.25 8.488281 190.410156 C 8.609375 189.929688 8.738281 189.449219 8.871094 188.960938 C 9.261719 187.519531 9.660156 186.078125 10.078125 184.648438 C 10.351562 183.699219 10.628906 182.761719 10.921875 181.820312 C 11.71875 179.160156 12.558594 176.519531 13.449219 173.898438 C 13.789062 172.898438 14.128906 171.921875 14.480469 170.929688 C 14.820312 169.941406 15.179688 168.960938 15.539062 167.980469 C 15.871094 167.058594 16.21875 166.140625 16.570312 165.21875 C 17.378906 163.078125 18.21875 160.949219 19.089844 158.839844 C 19.359375 158.160156 19.648438 157.480469 19.941406 156.800781 C 20.070312 156.488281 20.199219 156.179688 20.320312 155.878906 C 20.621094 155.191406 20.910156 154.5 21.210938 153.808594 C 22.308594 151.289062 23.449219 148.800781 24.628906 146.328125 C 25.011719 145.5 25.410156 144.671875 25.820312 143.851562 C 25.949219 143.578125 26.070312 143.320312 26.210938 143.058594 C 26.761719 141.929688 27.320312 140.800781 27.898438 139.679688 C 28.550781 138.410156 29.210938 137.140625 29.890625 135.878906 C 30.480469 134.761719 31.078125 133.640625 31.699219 132.53125 C 32.320312 131.390625 32.960938 130.261719 33.601562 129.140625 C 33.628906 129.089844 33.648438 129.050781 33.679688 129 C 52.488281 161.859375 78.378906 190.148438 109.261719 211.78125 C 150.808594 240.910156 201.410156 258 256 258 C 271.371094 258 286.429688 256.640625 301.058594 254.039062 C 338.089844 247.46875 372.359375 232.941406 402.050781 212.261719 C 433.25 190.570312 459.371094 162.109375 478.320312 129 C 478.351562 129.050781 478.371094 129.089844 478.398438 129.140625 C 479.039062 130.261719 479.679688 131.390625 480.300781 132.53125 C 480.921875 133.640625 481.519531 134.761719 482.109375 135.878906 C 482.789062 137.140625 483.449219 138.410156 484.101562 139.679688 C 484.679688 140.800781 485.238281 141.929688 485.789062 143.058594 C 485.929688 143.320312 486.050781 143.578125 486.179688 143.851562 C 486.589844 144.671875 486.988281 145.5 487.371094 146.328125 C 488.550781 148.800781 489.691406 151.289062 490.789062 153.808594 C 491.089844 154.5 491.378906 155.191406 491.679688 155.878906 C 491.800781 156.179688 491.929688 156.488281 492.058594 156.800781 C 492.351562 157.480469 492.640625 158.160156 492.910156 158.839844 C 493.78125 160.949219 494.621094 163.078125 495.429688 165.21875 C 495.78125 166.140625 496.128906 167.058594 496.460938 167.980469 C 496.820312 168.960938 497.179688 169.941406 497.519531 170.929688 C 497.871094 171.921875 498.210938 172.898438 498.550781 173.898438 C 499.441406 176.519531 500.28125 179.160156 501.078125 181.820312 C 501.371094 182.761719 501.648438 183.699219 501.921875 184.648438 C 502.339844 186.078125 502.738281 187.519531 503.128906 188.960938 C 503.261719 189.449219 503.390625 189.929688 503.511719 190.410156 C 503.738281 191.25 503.960938 192.089844 504.171875 192.941406 C 504.410156 193.859375 504.640625 194.789062 504.851562 195.710938 C 505.058594 196.53125 505.25 197.359375 505.441406 198.191406 C 505.941406 200.320312 506.398438 202.449219 506.839844 204.601562 C 506.96875 205.25 507.101562 205.898438 507.21875 206.558594 C 507.390625 207.371094 507.539062 208.179688 507.691406 208.988281 C 507.859375 209.878906 508.019531 210.769531 508.171875 211.660156 C 508.398438 212.96875 508.621094 214.300781 508.828125 215.621094 C 508.941406 216.300781 509.050781 216.96875 509.140625 217.648438 C 509.160156 217.738281 509.171875 217.828125 509.179688 217.921875 C 509.371094 219.109375 509.539062 220.300781 509.691406 221.5 C 509.738281 221.839844 509.78125 222.171875 509.820312 222.511719 C 509.96875 223.609375 510.109375 224.71875 510.230469 225.820312 C 510.441406 227.558594 510.628906 229.308594 510.800781 231.058594 C 510.890625 231.949219 510.96875 232.839844 511.039062 233.738281 C 511.109375 234.449219 511.171875 235.171875 511.21875 235.878906 C 511.300781 236.929688 511.378906 237.988281 511.441406 239.050781 C 511.53125 240.308594 511.601562 241.570312 511.671875 242.828125 C 511.730469 244.050781 511.78125 245.269531 511.820312 246.488281 C 511.851562 247.03125 511.859375 247.570312 511.878906 248.109375 C 511.921875 249.289062 511.941406 250.480469 511.960938 251.679688 C 511.988281 253.109375 512 254.558594 512 256 Z M 512 256 " style=" stroke:none;fill-rule:nonzero;fill:rgb(50.588235%,88.627451%,82.352941%);fill-opacity:1;" />
<path d="M 402.050781 175.789062 C 402.050781 175.789062 402.050781 189.75 402.050781 212.261719 L 402.050781 466.269531 C 401.878906 466.390625 401.710938 466.511719 401.53125 466.628906 C 400.160156 467.589844 398.769531 468.53125 397.371094 469.449219 C 396.808594 469.820312 396.25 470.191406 395.679688 470.558594 C 393.648438 471.890625 391.589844 473.191406 389.511719 474.460938 C 388.589844 475.03125 387.660156 475.589844 386.71875 476.148438 C 386.511719 476.28125 386.289062 476.410156 386.058594 476.539062 C 384.949219 477.199219 383.828125 477.851562 382.699219 478.488281 C 381.859375 478.96875 381.011719 479.449219 380.160156 479.921875 C 380.078125 479.96875 379.988281 480.019531 379.898438 480.058594 C 379.441406 480.320312 378.988281 480.570312 378.53125 480.820312 C 377.601562 481.328125 376.660156 481.839844 375.71875 482.328125 C 375.570312 482.421875 375.410156 482.5 375.25 482.578125 C 374.070312 483.210938 372.878906 483.820312 371.691406 484.421875 C 370.449219 485.050781 369.210938 485.671875 367.949219 486.28125 C 367.128906 486.691406 366.300781 487.078125 365.46875 487.46875 C 364.558594 487.898438 363.660156 488.328125 362.738281 488.75 C 360.941406 489.578125 359.121094 490.390625 357.28125 491.179688 C 356.589844 491.480469 355.898438 491.769531 355.210938 492.058594 C 354.371094 492.421875 353.511719 492.769531 352.648438 493.121094 C 351.550781 493.578125 350.441406 494.019531 349.320312 494.449219 C 347.761719 495.070312 346.191406 495.671875 344.601562 496.238281 C 343.351562 496.710938 342.101562 497.160156 340.839844 497.601562 C 339.851562 497.949219 338.851562 498.300781 337.851562 498.628906 C 337.230469 498.839844 336.609375 499.050781 335.980469 499.25 C 334.789062 499.648438 333.601562 500.03125 332.398438 500.398438 C 331.191406 500.78125 329.980469 501.148438 328.761719 501.511719 C 328.71875 501.519531 328.679688 501.539062 328.628906 501.550781 C 327.320312 501.941406 326 502.320312 324.679688 502.679688 C 323.519531 503.011719 322.351562 503.320312 321.179688 503.628906 C 318.550781 504.320312 315.910156 504.96875 313.238281 505.570312 C 312.628906 505.710938 312.03125 505.851562 311.421875 505.980469 C 310.46875 506.191406 309.53125 506.398438 308.570312 506.589844 C 308.011719 506.710938 307.449219 506.828125 306.878906 506.929688 C 305.878906 507.148438 304.871094 507.339844 303.859375 507.53125 C 302.929688 507.710938 301.988281 507.878906 301.058594 508.050781 C 300.628906 508.121094 300.199219 508.199219 299.769531 508.269531 C 299.648438 508.289062 299.539062 508.308594 299.429688 508.328125 C 298.199219 508.539062 296.96875 508.738281 295.730469 508.929688 C 294.011719 509.199219 292.28125 509.460938 290.539062 509.691406 C 289.289062 509.859375 288.050781 510.019531 286.789062 510.160156 C 286.761719 510.171875 286.730469 510.171875 286.699219 510.179688 C 283.839844 510.519531 280.960938 510.820312 278.070312 511.058594 C 276.96875 511.160156 275.859375 511.238281 274.75 511.320312 C 274.679688 511.328125 274.601562 511.328125 274.519531 511.339844 C 273.921875 511.378906 273.320312 511.421875 272.710938 511.460938 C 271.371094 511.550781 270.019531 511.628906 268.660156 511.691406 C 267.648438 511.738281 266.628906 511.789062 265.609375 511.820312 C 265.109375 511.839844 264.601562 511.859375 264.101562 511.871094 C 262.800781 511.910156 261.5 511.949219 260.191406 511.960938 C 258.800781 511.988281 257.398438 512 256 512 C 254.640625 512 253.28125 511.988281 251.929688 511.960938 C 251.648438 511.960938 251.378906 511.960938 251.109375 511.949219 C 249.820312 511.929688 248.53125 511.898438 247.25 511.851562 L 247.019531 511.851562 C 245.578125 511.800781 244.148438 511.730469 242.71875 511.660156 L 242.671875 511.660156 C 241.441406 511.601562 240.199219 511.519531 238.980469 511.441406 L 238.949219 511.441406 C 238.371094 511.398438 237.789062 511.359375 237.210938 511.308594 C 236.058594 511.238281 234.910156 511.148438 233.761719 511.039062 C 232.410156 510.929688 231.070312 510.808594 229.730469 510.660156 C 229.609375 510.660156 229.5 510.640625 229.390625 510.628906 C 228 510.488281 226.621094 510.339844 225.25 510.171875 C 223.929688 510.011719 222.621094 509.851562 221.308594 509.671875 C 220.839844 509.609375 220.371094 509.539062 219.898438 509.46875 C 218.871094 509.328125 217.839844 509.179688 216.808594 509.011719 C 215.109375 508.761719 213.421875 508.480469 211.738281 508.179688 C 210.640625 508 209.539062 507.800781 208.441406 507.578125 C 208.230469 507.539062 208.019531 507.5 207.808594 507.460938 C 205.441406 507.019531 203.089844 506.53125 200.75 506.019531 C 200.199219 505.898438 199.640625 505.769531 199.089844 505.648438 C 197.730469 505.339844 196.378906 505.019531 195.03125 504.699219 C 194.320312 504.519531 193.609375 504.339844 192.898438 504.160156 C 192.640625 504.101562 192.378906 504.03125 192.121094 503.960938 C 191.519531 503.808594 190.910156 503.648438 190.308594 503.488281 C 187.871094 502.851562 185.449219 502.171875 183.050781 501.449219 C 181.960938 501.128906 180.871094 500.800781 179.789062 500.460938 C 178.53125 500.070312 177.269531 499.671875 176.019531 499.25 C 175.5 499.078125 174.96875 498.910156 174.449219 498.730469 C 174.378906 498.710938 174.308594 498.691406 174.238281 498.660156 C 173.210938 498.320312 172.179688 497.960938 171.160156 497.601562 C 170.441406 497.351562 169.71875 497.101562 169 496.839844 C 168.558594 496.679688 168.121094 496.511719 167.679688 496.351562 C 166.78125 496.03125 165.890625 495.691406 165 495.339844 C 164.878906 495.300781 164.75 495.25 164.628906 495.199219 C 163.839844 494.910156 163.058594 494.601562 162.28125 494.289062 C 161.410156 493.960938 160.539062 493.609375 159.671875 493.25 C 158.601562 492.820312 157.539062 492.378906 156.488281 491.929688 C 155.921875 491.699219 155.359375 491.460938 154.808594 491.21875 C 154.101562 490.921875 153.390625 490.609375 152.691406 490.289062 C 152.109375 490.039062 151.53125 489.78125 150.949219 489.519531 C 150.128906 489.148438 149.308594 488.78125 148.5 488.398438 C 147.890625 488.109375 147.269531 487.820312 146.660156 487.53125 C 145.78125 487.121094 144.910156 486.710938 144.050781 486.28125 C 142.789062 485.671875 141.550781 485.050781 140.308594 484.421875 C 140.28125 484.410156 140.261719 484.398438 140.238281 484.390625 C 139.140625 483.828125 138.039062 483.261719 136.949219 482.679688 C 134.300781 481.289062 131.679688 479.859375 129.089844 478.371094 C 128.121094 477.820312 127.148438 477.261719 126.191406 476.691406 C 125.988281 476.570312 125.789062 476.460938 125.601562 476.339844 C 124.480469 475.679688 123.371094 475.011719 122.269531 474.328125 C 122.199219 474.289062 122.140625 474.25 122.078125 474.210938 C 120.960938 473.53125 119.851562 472.828125 118.75 472.128906 C 117.988281 471.648438 117.230469 471.160156 116.488281 470.671875 C 115.859375 470.269531 115.25 469.859375 114.628906 469.449219 C 114.539062 469.398438 114.460938 469.339844 114.378906 469.28125 C 113.21875 468.511719 112.058594 467.730469 110.910156 466.929688 C 110.800781 466.859375 110.691406 466.789062 110.589844 466.710938 C 110.140625 466.410156 109.699219 466.101562 109.261719 465.78125 L 109.261719 175.789062 Z M 402.050781 175.789062 " style=" stroke:none;fill-rule:nonzero;fill:rgb(77.254902%,34.509804%,20.784314%);fill-opacity:1;" />
<path d="M 169 175.789062 L 169 496.839844 C 168.558594 496.679688 168.121094 496.511719 167.679688 496.351562 C 166.78125 496.03125 165.890625 495.691406 165 495.339844 C 164.878906 495.300781 164.75 495.25 164.628906 495.199219 C 163.839844 494.910156 163.058594 494.601562 162.28125 494.289062 C 161.410156 493.960938 160.539062 493.609375 159.671875 493.25 C 158.601562 492.820312 157.539062 492.378906 156.488281 491.929688 C 155.921875 491.699219 155.359375 491.460938 154.808594 491.21875 C 154.101562 490.921875 153.390625 490.609375 152.691406 490.289062 C 152.109375 490.039062 151.53125 489.78125 150.949219 489.519531 C 150.128906 489.148438 149.308594 488.78125 148.5 488.398438 C 147.890625 488.109375 147.269531 487.820312 146.660156 487.53125 C 145.78125 487.121094 144.910156 486.710938 144.050781 486.28125 C 142.789062 485.671875 141.550781 485.050781 140.308594 484.421875 C 140.28125 484.410156 140.261719 484.398438 140.238281 484.390625 C 139.140625 483.828125 138.039062 483.261719 136.949219 482.679688 C 134.300781 481.289062 131.679688 479.859375 129.089844 478.371094 C 128.121094 477.820312 127.148438 477.261719 126.191406 476.691406 C 125.988281 476.570312 125.789062 476.460938 125.601562 476.339844 C 124.480469 475.679688 123.371094 475.011719 122.269531 474.328125 C 122.199219 474.289062 122.140625 474.25 122.078125 474.210938 C 120.960938 473.53125 119.851562 472.828125 118.75 472.128906 C 117.988281 471.648438 117.230469 471.160156 116.488281 470.671875 C 115.859375 470.269531 115.25 469.859375 114.628906 469.449219 C 114.539062 469.398438 114.460938 469.339844 114.378906 469.28125 C 113.21875 468.511719 112.058594 467.730469 110.910156 466.929688 C 110.800781 466.859375 110.691406 466.789062 110.589844 466.710938 C 110.140625 466.410156 109.699219 466.101562 109.261719 465.78125 L 109.261719 175.789062 Z M 169 175.789062 " style=" stroke:none;fill-rule:nonzero;fill:rgb(91.764706%,50.980392%,30.588235%);fill-opacity:1;" />
<path d="M 402.050781 175.789062 C 402.050781 175.789062 402.050781 189.75 402.050781 212.261719 L 402.050781 466.269531 C 401.878906 466.390625 401.710938 466.511719 401.53125 466.628906 C 400.160156 467.589844 398.769531 468.53125 397.371094 469.449219 C 396.808594 469.820312 396.25 470.191406 395.679688 470.558594 C 393.648438 471.890625 391.589844 473.191406 389.511719 474.460938 C 388.589844 475.03125 387.660156 475.589844 386.71875 476.148438 C 386.511719 476.28125 386.289062 476.410156 386.058594 476.539062 C 384.949219 477.199219 383.828125 477.851562 382.699219 478.488281 C 381.859375 478.96875 381.011719 479.449219 380.160156 479.921875 C 380.078125 479.96875 379.988281 480.019531 379.898438 480.058594 C 379.441406 480.320312 378.988281 480.570312 378.53125 480.820312 C 377.601562 481.328125 376.660156 481.839844 375.71875 482.328125 C 375.570312 482.421875 375.410156 482.5 375.25 482.578125 C 374.070312 483.210938 372.878906 483.820312 371.691406 484.421875 C 370.449219 485.050781 369.210938 485.671875 367.949219 486.28125 C 367.128906 486.691406 366.300781 487.078125 365.46875 487.46875 C 364.558594 487.898438 363.660156 488.328125 362.738281 488.75 C 360.941406 489.578125 359.121094 490.390625 357.28125 491.179688 C 356.589844 491.480469 355.898438 491.769531 355.210938 492.058594 C 354.371094 492.421875 353.511719 492.769531 352.648438 493.121094 C 351.550781 493.578125 350.441406 494.019531 349.320312 494.449219 C 347.761719 495.070312 346.191406 495.671875 344.601562 496.238281 C 343.351562 496.710938 342.101562 497.160156 340.839844 497.601562 C 339.851562 497.949219 338.851562 498.300781 337.851562 498.628906 C 337.230469 498.839844 336.609375 499.050781 335.980469 499.25 C 334.789062 499.648438 333.601562 500.03125 332.398438 500.398438 C 331.191406 500.78125 329.980469 501.148438 328.761719 501.511719 C 328.71875 501.519531 328.679688 501.539062 328.628906 501.550781 C 327.320312 501.941406 326 502.320312 324.679688 502.679688 C 323.519531 503.011719 322.351562 503.320312 321.179688 503.628906 C 318.550781 504.320312 315.910156 504.96875 313.238281 505.570312 C 312.628906 505.710938 312.03125 505.851562 311.421875 505.980469 C 310.46875 506.191406 309.53125 506.398438 308.570312 506.589844 C 308.011719 506.710938 307.449219 506.828125 306.878906 506.929688 C 305.878906 507.148438 304.871094 507.339844 303.859375 507.53125 C 302.929688 507.710938 301.988281 507.878906 301.058594 508.050781 C 300.628906 508.121094 300.199219 508.199219 299.769531 508.269531 C 299.648438 508.289062 299.539062 508.308594 299.429688 508.328125 C 298.199219 508.539062 296.96875 508.738281 295.730469 508.929688 C 294.011719 509.199219 292.28125 509.460938 290.539062 509.691406 C 289.289062 509.859375 288.050781 510.019531 286.789062 510.160156 C 286.761719 510.171875 286.730469 510.171875 286.699219 510.179688 C 283.839844 510.519531 280.960938 510.820312 278.070312 511.058594 C 276.96875 511.160156 275.859375 511.238281 274.75 511.320312 C 274.679688 511.328125 274.601562 511.328125 274.519531 511.339844 C 273.921875 511.378906 273.320312 511.421875 272.710938 511.460938 C 271.371094 511.550781 270.019531 511.628906 268.660156 511.691406 C 267.648438 511.738281 266.628906 511.789062 265.609375 511.820312 C 265.109375 511.839844 264.601562 511.859375 264.101562 511.871094 C 262.800781 511.910156 261.5 511.949219 260.191406 511.960938 C 258.800781 511.988281 257.398438 512 256 512 L 256 175.789062 Z M 402.050781 175.789062 " style=" stroke:none;fill-rule:nonzero;fill:rgb(47.843137%,17.647059%,10.196078%);fill-opacity:1;" />
<path d="M 402.734375 175.792969 C 402.734375 150.085938 337.039062 129.246094 256.003906 129.246094 C 174.964844 129.246094 109.269531 150.085938 109.269531 175.792969 C 109.269531 201.496094 174.964844 222.335938 256.003906 222.335938 C 337.039062 222.335938 402.734375 201.496094 402.734375 175.792969 Z M 402.734375 175.792969 " style=" stroke:none;fill-rule:nonzero;fill:rgb(98.039216%,60.392157%,38.823529%);fill-opacity:1;" />
<path d="M 358.222656 175.792969 C 358.222656 157.882812 312.457031 143.367188 256.003906 143.367188 C 199.550781 143.367188 153.785156 157.882812 153.785156 175.792969 C 153.785156 193.699219 199.550781 208.214844 256.003906 208.214844 C 312.457031 208.214844 358.222656 193.699219 358.222656 175.792969 Z M 358.222656 175.792969 " style=" stroke:none;fill-rule:nonzero;fill:rgb(77.254902%,34.509804%,20.784314%);fill-opacity:1;" />
<path d="M 313.453125 175.792969 C 313.453125 165.726562 287.730469 157.566406 256.003906 157.566406 C 224.273438 157.566406 198.550781 165.726562 198.550781 175.792969 C 198.550781 185.855469 224.273438 194.015625 256.003906 194.015625 C 287.730469 194.015625 313.453125 185.855469 313.453125 175.792969 Z M 313.453125 175.792969 " style=" stroke:none;fill-rule:nonzero;fill:rgb(98.039216%,60.392157%,38.823529%);fill-opacity:1;" />
<path d="M 282.074219 175.792969 C 282.074219 171.222656 270.402344 167.519531 256.003906 167.519531 C 241.601562 167.519531 229.929688 171.222656 229.929688 175.792969 C 229.929688 180.359375 241.601562 184.0625 256.003906 184.0625 C 270.402344 184.0625 282.074219 180.359375 282.074219 175.792969 Z M 282.074219 175.792969 " style=" stroke:none;fill-rule:nonzero;fill:rgb(77.254902%,34.509804%,20.784314%);fill-opacity:1;" />
</g>
</svg>